<svg width="389.38441162109376px" height="121.39999999999999px" xmlns="http://www.w3.org/2000/svg" viewBox="55.30779418945312 14.300000000000004 389.38441162109376 121.39999999999999" preserveAspectRatio="xMidYMid"><defs><filter id="editing-extrude-glow"><feFlood flood-color="#333" result="flood-1"></feFlood><feMorphology operator="erode" radius="1" in="SourceAlpha" result="erode"></feMorphology><feComposite operator="in" in="flood-1" in2="erode" result="comp1"></feComposite><feConvolveMatrix order="3,3" divisor="1" in="comp1" result="convolve" kernelMatrix="0 0 0 1 1 0 0 0 0 "></feConvolveMatrix><feOffset dx="-4" dy="0" in="convolve" result="extrude"></feOffset><feComposite operator="in" in="flood-1" in2="extrude" result="comp-extrude"></feComposite><feFlood flood-color="#000" result="flood-2"></feFlood><feComposite operator="in" in="flood-2" in2="SourceAlpha" result="comp2"></feComposite><feMorphology operator="dilate" radius="1" in="comp2" result="dilate"></feMorphology><feOffset dx="-6" dy="0" in="dilate" result="offset"></feOffset><feGaussianBlur in="offset" stdDeviation="5.8" result="blur"></feGaussianBlur><feComponentTransfer in="blur" result="shadow"><feFuncA type="linear" slope="0.8" intercept="-0.2"></feFuncA></feComponentTransfer><feMerge><feMergeNode in="shadow"></feMergeNode><feMergeNode in="comp-extrude"></feMergeNode><feMergeNode in="SourceGraphic"></feMergeNode></feMerge></filter></defs><g filter="url(#editing-extrude-glow)"><g transform="translate(114.44498932361603, 98.68000030517578)"><path d="M26.05-29.57L26.05-29.57L26.05-29.57Q27.01-31.49 27.01-33.28L27.01-33.28L27.01-33.28Q27.01-35.07 26.82-36.06L26.82-36.06L26.82-36.06Q26.62-37.06 26.18-37.82L26.18-37.82L26.18-37.82Q25.22-39.49 23.30-39.49L23.30-39.49L23.30-39.49Q20.93-39.49 19.01-37.76L19.01-37.76L19.01-37.76Q16.96-35.97 16.96-33.15L16.96-33.15L16.96-33.15Q16.96-31.36 18.21-29.98L18.21-29.98L18.21-29.98Q19.46-28.61 21.38-27.33L21.38-27.33L21.38-27.33Q23.30-26.05 25.47-24.77L25.47-24.77L25.47-24.77Q27.65-23.49 29.57-21.95L29.57-21.95L29.57-21.95Q33.98-18.43 33.98-13.70L33.98-13.70L33.98-13.70Q33.98-10.50 32.29-7.78L32.29-7.78L32.29-7.78Q30.59-5.06 27.78-3.07L27.78-3.07L27.78-3.07Q21.63 1.28 13.50 1.28L13.50 1.28L13.50 1.28Q6.91 1.28 3.52-0.86L3.52-0.86L3.52-0.86Q0.13-3.01 0.13-6.27L0.13-6.27L0.13-6.27Q0.13-12.10 4.67-13.57L4.67-13.57L4.67-13.57Q5.95-14.02 7.90-14.02L7.90-14.02L7.90-14.02Q9.86-14.02 12.10-13.18L12.10-13.18L12.10-13.18Q11.07-10.56 11.07-8.19L11.07-8.19L11.07-8.19Q11.07-3.07 14.72-3.07L14.72-3.07L14.72-3.07Q17.09-3.07 19.04-4.80L19.04-4.80L19.04-4.80Q20.99-6.53 20.99-8.48L20.99-8.48L20.99-8.48Q20.99-10.43 19.74-11.84L19.74-11.84L19.74-11.84Q18.50-13.25 16.64-14.37L16.64-14.37L16.64-14.37Q14.78-15.49 12.64-16.58L12.64-16.58L12.64-16.58Q10.50-17.66 8.64-19.20L8.64-19.20L8.64-19.20Q4.29-22.72 4.29-28.35L4.29-28.35L4.29-28.35Q4.29-32 6.08-34.85L6.08-34.85L6.08-34.85Q7.87-37.70 10.75-39.62L10.75-39.62L10.75-39.62Q16.51-43.52 23.58-43.52L23.58-43.52L23.58-43.52Q30.66-43.52 34.08-41.41L34.08-41.41L34.08-41.41Q37.50-39.30 37.50-35.71L37.50-35.71L37.50-35.71Q37.50-32.58 35.07-30.59L35.07-30.59L35.07-30.59Q32.96-28.93 30.40-28.93L30.40-28.93L30.40-28.93Q27.84-28.93 26.05-29.57ZM54.14-3.52L54.14-3.52L54.14-3.52Q52.16 1.28 45.82 1.28L45.82 1.28L45.82 1.28Q42.62 1.28 40.58-0.96L40.58-0.96L40.58-0.96Q38.91-2.82 38.91-4.93L38.91-4.93L38.91-4.93Q38.91-9.73 41.15-20.22L41.15-20.22L45.82-44.80L58.82-46.08L52.61-13.70L52.61-13.70Q51.52-8.96 51.52-7.30L51.52-7.30L51.52-7.30Q51.52-3.65 54.14-3.52ZM73.54 1.28L73.54 1.28L73.54 1.28Q59.46 1.28 59.46-11.97L59.46-11.97L59.46-11.97Q59.46-21.38 64.64-27.46L64.64-27.46L64.64-27.46Q70.14-33.92 79.68-33.92L79.68-33.92L79.68-33.92Q86.59-33.92 90.11-30.72L90.11-30.72L90.11-30.72Q93.63-27.52 93.63-20.80L93.63-20.80L93.63-20.80Q93.63-10.56 88.13-4.61L88.13-4.61L88.13-4.61Q82.75 1.28 73.54 1.28ZM75.20-26.56L75.20-26.56L75.20-26.56Q74.43-24.83 73.82-22.24L73.82-22.24L73.82-22.24Q73.22-19.65 72.45-15.55L72.45-15.55L72.45-15.55Q71.68-11.46 71.68-6.40L71.68-6.40L71.68-6.40Q71.68-4.74 72.22-3.65L72.22-3.65L72.22-3.65Q72.77-2.56 74.24-2.56L74.24-2.56L74.24-2.56Q75.71-2.56 76.64-3.26L76.64-3.26L76.64-3.26Q77.57-3.97 78.27-5.63L78.27-5.63L78.27-5.63Q79.55-8.58 80.58-14.05L80.58-14.05L80.58-14.05Q81.60-19.52 81.70-21.89L81.70-21.89L81.70-21.89Q81.79-24.26 81.79-26.02L81.79-26.02L81.79-26.02Q81.79-27.78 81.28-28.93L81.28-28.93L81.28-28.93Q80.77-30.08 79.33-30.08L79.33-30.08L79.33-30.08Q77.89-30.08 76.93-29.18L76.93-29.18L76.93-29.18Q75.97-28.29 75.20-26.56ZM120.64-31.55L120.64-31.55L120.64-31.55Q122.75-33.92 126.40-33.92L126.40-33.92L126.40-33.92Q128.64-33.92 130.37-32.70L130.37-32.70L130.37-32.70Q132.10-31.49 132.10-29.22L132.10-29.22L132.10-29.22Q132.10-26.94 131.39-24.51L131.39-24.51L131.39-24.51Q130.69-22.08 129.60-19.58L129.60-19.58L129.60-19.58Q127.42-14.72 124.42-10.69L124.42-10.69L124.42-10.69Q120.19-4.86 116.13-1.79L116.13-1.79L116.13-1.79Q112.06 1.28 107.65 1.28L107.65 1.28L107.65 1.28Q104.06 1.28 101.89 0.45L101.89 0.45L101.89 0.45Q101.50-12.99 101.02-17.79L101.02-17.79L101.02-17.79Q100.54-22.59 100.16-25.22L100.16-25.22L100.16-25.22Q99.52-30.34 97.60-31.55L97.60-31.55L97.60-31.55Q99.07-32.83 100.51-33.38L100.51-33.38L100.51-33.38Q101.95-33.92 104.93-33.92L104.93-33.92L104.93-33.92Q107.90-33.92 110.02-31.58L110.02-31.58L110.02-31.58Q112.13-29.25 112.54-25.12L112.54-25.12L112.54-25.12Q112.96-20.99 112.96-16L112.96-16L112.96-16Q112.96-11.01 112.58-4.99L112.58-4.99L112.58-4.99Q114.56-6.40 116.67-10.69L116.67-10.69L116.67-10.69Q119.55-16.64 120.58-23.81L120.58-23.81L120.58-23.81Q120.90-25.98 120.90-28.29L120.90-28.29L120.90-28.29Q120.90-30.59 120.64-31.55ZM159.74-10.82L159.74-10.82L159.74-10.82Q161.34-9.73 161.34-7.33L161.34-7.33L161.34-7.33Q161.34-4.93 160.13-3.39L160.13-3.39L160.13-3.39Q158.91-1.86 156.93-0.83L156.93-0.83L156.93-0.83Q152.83 1.28 148.42 1.28L148.42 1.28L148.42 1.28Q144 1.28 141.41 0.32L141.41 0.32L141.41 0.32Q138.82-0.64 137.09-2.43L137.09-2.43L137.09-2.43Q133.70-5.82 133.70-12.03L133.70-12.03L133.70-12.03Q133.70-21.70 138.94-27.58L138.94-27.58L138.94-27.58Q144.58-33.92 154.37-33.92L154.37-33.92L154.37-33.92Q160.45-33.92 163.46-31.36L163.46-31.36L163.46-31.36Q165.70-29.44 165.70-26.30L165.70-26.30L165.70-26.30Q165.70-15.04 146.24-15.04L146.24-15.04L146.24-15.04Q145.98-13.38 145.98-11.97L145.98-11.97L145.98-11.97Q145.98-9.02 147.30-7.90L147.30-7.90L147.30-7.90Q148.61-6.78 151.04-6.78L151.04-6.78L151.04-6.78Q153.47-6.78 156.06-7.90L156.06-7.90L156.06-7.90Q158.66-9.02 159.74-10.82ZM146.69-17.79L146.69-17.79L146.69-17.79Q151.23-17.79 153.86-20.61L153.86-20.61L153.86-20.61Q156.48-23.30 156.48-27.58L156.48-27.58L156.48-27.58Q156.48-29.06 155.94-29.86L155.94-29.86L155.94-29.86Q155.39-30.66 154.30-30.66L154.30-30.66L154.30-30.66Q153.22-30.66 152.29-30.24L152.29-30.24L152.29-30.24Q151.36-29.82 150.40-28.42L150.40-28.42L150.40-28.42Q148.03-25.22 146.69-17.79ZM187.01-22.46L187.01-22.46L187.01-22.46Q187.90-24.83 187.90-26.88L187.90-26.88L187.90-26.88Q187.90-30.66 184.83-30.66L184.83-30.66L184.83-30.66Q183.23-30.66 181.92-29.22L181.92-29.22L181.92-29.22Q180.61-27.78 180.61-25.98L180.61-25.98L180.61-25.98Q180.61-24.70 181.63-23.68L181.63-23.68L181.63-23.68Q183.10-22.27 186.88-19.97L186.88-19.97L186.88-19.97Q190.66-17.66 192.10-15.78L192.10-15.78L192.10-15.78Q193.54-13.89 193.54-11.30L193.54-11.30L193.54-11.30Q193.54-8.70 192.29-6.34L192.29-6.34L192.29-6.34Q191.04-3.97 188.80-2.30L188.80-2.30L188.80-2.30Q184 1.28 176.32 1.28L176.32 1.28L176.32 1.28Q172.16 1.28 168.96-0.90L168.96-0.90L168.96-0.90Q165.76-3.01 165.76-5.50L165.76-5.50L165.76-5.50Q165.76-8 167.58-9.47L167.58-9.47L167.58-9.47Q169.41-10.94 172.10-10.94L172.10-10.94L172.10-10.94Q174.78-10.94 176.45-9.92L176.45-9.92L176.45-9.92Q175.62-7.81 175.62-6.40L175.62-6.40L175.62-6.40Q175.62-2.18 179.20-2.18L179.20-2.18L179.20-2.18Q180.74-2.18 181.76-3.14L181.76-3.14L181.76-3.14Q182.78-4.10 182.78-5.76L182.78-5.76L182.78-5.76Q182.78-9.02 177.28-12.48L177.28-12.48L177.28-12.48Q172.80-15.42 171.78-16.58L171.78-16.58L171.78-16.58Q170.05-18.62 170.05-21.18L170.05-21.18L170.05-21.18Q170.05-23.74 171.26-26.18L171.26-26.18L171.26-26.18Q172.48-28.61 174.72-30.34L174.72-30.34L174.72-30.34Q179.39-33.92 187.52-33.92L187.52-33.92L187.52-33.92Q191.68-33.92 194.14-32.26L194.14-32.26L194.14-32.26Q196.61-30.59 196.61-27.78L196.61-27.78L196.61-27.78Q196.61-24.96 194.91-23.36L194.91-23.36L194.91-23.36Q193.22-21.76 190.14-21.76L190.14-21.76L190.14-21.76Q188.03-21.76 187.01-22.46ZM226.05 1.28L226.05 1.28L226.05 1.28Q218.30 1.28 218.30-4.74L218.30-4.74L218.30-4.74Q218.37-6.40 218.88-9.22L218.88-9.22L220.03-15.10L220.03-15.10Q221.76-23.42 221.76-25.28L221.76-25.28L221.76-25.28Q221.76-28.99 219.58-28.99L219.58-28.99L219.58-28.99Q215.94-28.99 214.02-19.46L214.02-19.46L210.24 0L197.38 1.28L204.03-32.70L214.53-33.92L213.50-27.65L213.50-27.65Q216.51-33.92 225.73-33.92L225.73-33.92L225.73-33.92Q230.21-33.92 232.10-32.03L232.10-32.03L232.10-32.03Q233.98-30.14 233.98-25.92L233.98-25.92L233.98-25.92Q233.98-21.95 231.94-12.67L231.94-12.67L231.94-12.67Q230.98-8.51 230.98-6.94L230.98-6.94L230.98-6.94Q230.98-5.38 231.84-4.48L231.84-4.48L231.84-4.48Q232.70-3.58 233.98-3.46L233.98-3.46L233.98-3.46Q233.34-1.28 231.14 0L231.14 0L231.14 0Q228.93 1.28 226.05 1.28ZM265.02-10.82L265.02-10.82L265.02-10.82Q266.62-9.73 266.62-7.33L266.62-7.33L266.62-7.33Q266.62-4.93 265.41-3.39L265.41-3.39L265.41-3.39Q264.19-1.86 262.21-0.83L262.21-0.83L262.21-0.83Q258.11 1.28 253.70 1.28L253.70 1.28L253.70 1.28Q249.28 1.28 246.69 0.32L246.69 0.32L246.69 0.32Q244.10-0.64 242.37-2.43L242.37-2.43L242.37-2.43Q238.98-5.82 238.98-12.03L238.98-12.03L238.98-12.03Q238.98-21.70 244.22-27.58L244.22-27.58L244.22-27.58Q249.86-33.92 259.65-33.92L259.65-33.92L259.65-33.92Q265.73-33.92 268.74-31.36L268.74-31.36L268.74-31.36Q270.98-29.44 270.98-26.30L270.98-26.30L270.98-26.30Q270.98-15.04 251.52-15.04L251.52-15.04L251.52-15.04Q251.26-13.38 251.26-11.97L251.26-11.97L251.26-11.97Q251.26-9.02 252.58-7.90L252.58-7.90L252.58-7.90Q253.89-6.78 256.32-6.78L256.32-6.78L256.32-6.78Q258.75-6.78 261.34-7.90L261.34-7.90L261.34-7.90Q263.94-9.02 265.02-10.82ZM251.97-17.79L251.97-17.79L251.97-17.79Q256.51-17.79 259.14-20.61L259.14-20.61L259.14-20.61Q261.76-23.30 261.76-27.58L261.76-27.58L261.76-27.58Q261.76-29.06 261.22-29.86L261.22-29.86L261.22-29.86Q260.67-30.66 259.58-30.66L259.58-30.66L259.58-30.66Q258.50-30.66 257.57-30.24L257.57-30.24L257.57-30.24Q256.64-29.82 255.68-28.42L255.68-28.42L255.68-28.42Q253.31-25.22 251.97-17.79Z" fill="#eb6c6c"></path></g></g><style>text {
  font-size: 64px;
  font-family: Arial Black;
  dominant-baseline: central;
  text-anchor: middle;
}</style></svg>